<svg width="76" height="25" viewBox="0 0 76 25" fill="none" xmlns="http://www.w3.org/2000/svg">
<path d="M0.024 16.8V7.584C0.024 5.504 0.224 4 0.624 3.072C1.024 2.128 1.792 1.656 2.928 1.656C3.536 1.656 4.008 1.912 4.344 2.424C4.68 2.936 4.848 3.664 4.848 4.608C4.848 6.32 3.96 8.064 2.184 9.84V11.112C2.776 10.472 3.528 10.152 4.44 10.152C5.832 10.152 6.976 10.624 7.872 11.568C8.768 12.512 9.216 13.848 9.216 15.576C9.216 17.304 8.784 18.656 7.92 19.632C7.056 20.592 5.936 21.072 4.56 21.072C3.2 21.072 2.104 20.68 1.272 19.896C0.44 19.112 0.024 18.08 0.024 16.8ZM6.936 15.576C6.936 13.912 6.76 12.752 6.408 12.096C6.056 11.424 5.432 11.088 4.536 11.088C3.64 11.088 3.024 11.368 2.688 11.928C2.352 12.488 2.184 13.448 2.184 14.808V16.056C2.184 17.496 2.368 18.536 2.736 19.176C3.12 19.816 3.744 20.136 4.608 20.136C5.472 20.136 6.072 19.792 6.408 19.104C6.76 18.416 6.936 17.24 6.936 15.576ZM2.952 2.592C2.632 2.592 2.424 2.92 2.328 3.576C2.232 4.216 2.184 5.568 2.184 7.632V8.688C3.272 7.28 3.816 5.912 3.816 4.584C3.816 3.256 3.528 2.592 2.952 2.592ZM11.375 8.064C11.375 7.584 11.495 7.224 11.735 6.984C11.975 6.728 12.279 6.6 12.647 6.6C13.015 6.6 13.311 6.712 13.535 6.936V10.488H16.823C17.159 10.488 17.375 10.552 17.471 10.68C17.583 10.808 17.639 11.024 17.639 11.328H13.535V17.376C13.535 18.256 13.783 18.936 14.279 19.416C14.791 19.896 15.375 20.136 16.031 20.136C17.023 20.136 17.751 19.768 18.215 19.032C18.679 18.296 18.911 17.104 18.911 15.456C18.943 15.36 19.063 15.312 19.271 15.312C19.559 15.312 19.703 15.736 19.703 16.584C19.703 17.88 19.375 18.952 18.719 19.8C18.079 20.648 17.087 21.072 15.743 21.072C14.399 21.072 13.335 20.72 12.551 20.016C11.767 19.312 11.375 18.264 11.375 16.872V8.064ZM25.5888 15.408L25.5408 11.952C25.5408 11.568 25.5488 11.272 25.5648 11.064C25.5968 10.856 25.6928 10.648 25.8528 10.44C26.0128 10.232 26.2448 10.128 26.5488 10.128C27.4448 10.128 27.8928 10.768 27.8928 12.048C27.8928 12.768 27.8448 13.472 27.7488 14.16V15.576C27.7488 18.68 28.6688 20.232 30.5088 20.232C30.9088 20.232 31.2608 20.112 31.5648 19.872C30.8928 19.232 30.3888 18.432 30.0528 17.472C29.7168 16.512 29.5488 15.584 29.5488 14.688C29.5488 13.104 29.7728 11.912 30.2208 11.112C30.6848 10.296 31.4608 9.888 32.5488 9.888C33.3008 9.888 33.9008 10.144 34.3488 10.656C34.8128 11.168 35.0448 11.848 35.0448 12.696C35.0448 15.752 34.3808 18.072 33.0528 19.656C33.5968 19.976 34.2048 20.136 34.8768 20.136C35.7728 20.136 36.5088 19.752 37.0848 18.984C37.6608 18.216 37.9488 17.04 37.9488 15.456C37.9648 15.36 38.0848 15.312 38.3088 15.312C38.5968 15.312 38.7408 15.688 38.7408 16.44C38.7408 17.768 38.4048 18.872 37.7328 19.752C37.0608 20.632 36.0368 21.072 34.6608 21.072C33.7328 21.072 32.9328 20.848 32.2608 20.4C31.6208 20.848 30.9408 21.072 30.2208 21.072C28.3968 21.072 27.0688 20.312 26.2368 18.792C25.3088 20.312 24.2208 21.072 22.9728 21.072C21.7248 21.072 20.7488 20.584 20.0448 19.608C19.3407 18.616 18.9887 17.232 18.9887 15.456V11.616C18.9887 11.136 19.1087 10.776 19.3487 10.536C19.5888 10.28 19.8928 10.152 20.2607 10.152C20.6288 10.152 20.9248 10.264 21.1488 10.488V15.576C21.1488 18.68 21.8288 20.232 23.1888 20.232C23.7968 20.232 24.3408 19.896 24.8208 19.224C25.3328 18.536 25.5888 17.264 25.5888 15.408ZM32.1888 11.184C31.2448 11.184 30.7728 12.216 30.7728 14.28C30.7728 16.344 31.2608 17.92 32.2368 19.008C32.8448 17.872 33.1488 15.976 33.1488 13.32C33.1488 11.896 32.8288 11.184 32.1888 11.184ZM51.4684 15.312C51.7564 15.312 51.9004 15.736 51.9004 16.584C51.9004 17.944 51.6044 19.032 51.0124 19.848C50.4364 20.664 49.5884 21.072 48.4684 21.072C47.3484 21.072 46.4844 20.688 45.8764 19.92C45.2844 19.152 44.9884 18.064 44.9884 16.656V13.848C44.9884 11.944 44.5084 10.992 43.5484 10.992C42.7004 10.992 42.0044 11.424 41.4604 12.288C40.9164 13.152 40.6444 14.6 40.6444 16.632V20.736C40.4844 20.96 40.2044 21.072 39.8044 21.072C39.4044 21.072 39.0844 20.952 38.8444 20.712C38.6044 20.456 38.4844 20.088 38.4844 19.608V10.488C38.6444 10.264 38.9484 10.152 39.3964 10.152C40.2284 10.152 40.6444 10.752 40.6444 11.952C41.3164 10.752 42.3804 10.152 43.8364 10.152C44.8764 10.152 45.7004 10.48 46.3084 11.136C46.9324 11.792 47.2444 12.736 47.2444 13.968V17.376C47.2444 18.288 47.3884 18.976 47.6764 19.44C47.9644 19.904 48.3884 20.136 48.9484 20.136C49.5244 20.136 50.0284 19.784 50.4604 19.08C50.8924 18.36 51.1084 17.152 51.1084 15.456C51.1244 15.36 51.2444 15.312 51.4684 15.312ZM58.1201 11.616C58.1201 11.136 58.2561 10.776 58.5281 10.536C58.8001 10.28 59.1281 10.152 59.5121 10.152C59.8961 10.152 60.2001 10.264 60.4241 10.488V17.376C60.4241 18.288 60.5681 18.976 60.8561 19.44C61.1441 19.904 61.5361 20.136 62.0321 20.136C62.5281 20.136 63.0081 19.848 63.4721 19.272C64.0161 18.584 64.2881 17.312 64.2881 15.456C64.3041 15.36 64.4241 15.312 64.6481 15.312C64.9361 15.312 65.0801 15.736 65.0801 16.584C65.0801 17.944 64.7841 19.032 64.1921 19.848C63.6161 20.664 62.8001 21.072 61.7441 21.072C60.0641 21.072 58.9601 20.312 58.4321 18.792C57.8081 20.312 56.6641 21.072 55.0001 21.072C54.0081 21.072 53.2081 20.776 52.6001 20.184C51.9921 19.576 51.6881 18.712 51.6881 17.592V11.616C51.6881 11.136 51.8081 10.776 52.0481 10.536C52.2881 10.28 52.5921 10.152 52.9601 10.152C53.3281 10.152 53.6241 10.264 53.8481 10.488V17.376C53.8481 19.28 54.3281 20.232 55.2881 20.232C56.0081 20.232 56.6561 19.8 57.2321 18.936C57.8241 18.072 58.1201 16.856 58.1201 15.288V11.616ZM69.2603 16.176C68.6203 15.952 67.9803 15.72 67.3403 15.48C66.7163 15.224 66.1883 14.864 65.7563 14.4C65.3243 13.936 65.1083 13.344 65.1083 12.624C65.1083 11.888 65.4443 11.296 66.1163 10.848C66.7883 10.384 67.7643 10.152 69.0443 10.152C70.3403 10.152 71.3483 10.376 72.0683 10.824C72.8043 11.272 73.1723 11.792 73.1723 12.384C73.1723 12.672 73.0603 12.904 72.8363 13.08C72.6283 13.256 72.4203 13.344 72.2123 13.344C71.8123 13.344 71.5483 13.248 71.4203 13.056C71.5163 12.944 71.5643 12.728 71.5643 12.408C71.5643 12.072 71.3163 11.768 70.8203 11.496C70.3243 11.224 69.7723 11.088 69.1643 11.088C68.5563 11.088 68.0523 11.2 67.6523 11.424C67.2523 11.648 67.0523 11.992 67.0523 12.456C67.0523 12.904 67.2763 13.296 67.7243 13.632C68.1883 13.968 68.7403 14.248 69.3803 14.472C70.0363 14.696 70.6843 14.936 71.3243 15.192C71.9803 15.448 72.5323 15.816 72.9803 16.296C73.4443 16.76 73.6763 17.336 73.6763 18.024C73.6763 19.048 73.2283 19.816 72.3323 20.328C71.4523 20.824 70.2843 21.072 68.8283 21.072C67.3883 21.072 66.2123 20.656 65.3003 19.824C64.4043 18.976 63.9563 17.928 63.9563 16.68C63.9563 16.232 64.0443 15.88 64.2203 15.624C64.3963 15.368 64.5963 15.24 64.8203 15.24C65.2363 15.24 65.4763 15.312 65.5403 15.456L65.5883 15.528C65.4923 15.768 65.4443 16.064 65.4443 16.416C65.4443 17.488 65.7563 18.376 66.3803 19.08C67.0043 19.784 67.8683 20.136 68.9723 20.136C70.6683 20.136 71.5243 19.536 71.5403 18.336C71.5403 17.424 70.7803 16.704 69.2603 16.176Z" fill="url(#paint0_linear_1_118)"/>
<defs>
<linearGradient id="paint0_linear_1_118" x1="38" y1="0" x2="38" y2="25" gradientUnits="userSpaceOnUse">
<stop stop-color="#AF00D2"/>
<stop offset="0.459278" stop-color="#F8298E"/>
<stop offset="1" stop-color="#FD0100"/>
</linearGradient>
</defs>
</svg>
